<svg version="1.1" id="Слой_1" xmlns="http://www.w3.org/2000/svg" x="0" y="0" viewBox="0 0 100 100" xml:space="preserve"><style>.st0{stroke-width:.75;stroke-linecap:square}.st0,.st1,.st2,.st3{fill:none;stroke:#000;stroke-miterlimit:10}.st1{stroke-width:.75}.st2,.st3{stroke-linecap:square}.st3{stroke-width:.5}</style><path class="st0" d="M82.3 53H19.5M82.3 53c0-3.4-13-6.2-29.6-6.6h-3.4 3.3c-18.3 0-33 3-33 6.6"/><path class="st0" d="M77.4 49.7c4.6-5.7-2.3-11.7-5-13.2L22.8 49.7"/><path class="st0" d="M22.8 49.7s-6.6-6.6 8.3-18.2l33-6.6c11.6 1.7 8.3 11.6 8.3 11.6L22.8 49.7z"/><path class="st1" d="M61.1 17.3c.8-1.1 1.4-2.5 1.4-4 0-3.7-3-6.6-6.6-6.6-3.7 0-6.6 3-6.6 6.6 0 .4.1.9.1 1.3-6.8-3.4-.1-7.9-.1-7.9C29.4 16.7 37 20.4 37 20.4l2-.4c-16 3.4-8.3 11.7-8.3 11.7L64.1 25s3.4-5.7-3-7.7z"/><circle class="st1" cx="55.8" cy="13.4" r="6.6"/><path class="st1" d="M38.7 20.1l12-2.7M59.1 6.6c1-3.9 4.9-6.3 8.8-5.4 3.1.8 5 3.9 4.3 7.1-.6 2.5-3.1 4-5.6 3.4-2-.5-3.2-2.5-2.7-4.5.4-1.6 2-2.6 3.6-2.2"/><path d="M52.7 10.4c1.3 0 1.3-2 0-2s-1.3 2 0 2zM51.2 12.7c-.6 1.9.3 4 2 5 1.1.6 2.1-1.1 1-1.7-1-.6-1.4-1.7-1.1-2.8.4-1.2-1.5-1.7-1.9-.5zM27.4 45.7c-2.2-3.4 3.1-8.8 5.3-11 .9-.9-.5-2.3-1.4-1.4-3 3-8.5 8.9-5.6 13.4.7 1.1 2.4.1 1.7-1zM35.5 22.1c-2.8 1.3-4.7 4.2-4.5 7.3.1 1.3 2.1 1.3 2 0-.2-2.5 1.3-4.5 3.5-5.6 1.2-.5.2-2.2-1-1.7zM43.5 11.1c-2.9 1.6-5.2 4-6.5 7.1-.5 1.2 1.5 1.7 1.9.5 1-2.6 3.1-4.5 5.5-5.9 1.2-.6.2-2.3-.9-1.7z"/><path class="st2" d="M17.8 54.7l3.3 6.6 6.6-6.6 3.3 6.6 6.6-6.6 3.4 6.6 6.6-6.6 3.3 6.6 6.6-6.6 3.3 6.6 6.6-6.6 3.3 6.6 6.6-6.6 3.3 6.6 3.3-6.6-13.2 42.9"/><path class="st2" d="M70.7 97.6H29.4L17.8 54.7"/><path class="st3" d="M75.7 59.6l-10 33.1M65.7 59.6l-6.6 33.1M55.8 59.6l-3.3 33.1M45.9 59.6v33.1M36 59.6l3.3 33.1M26.1 59.6l6.6 33.1"/></svg>